<svg id="visual" viewBox="0 0 375 812" width="375" height="812" xmlns="http://www.w3.org/2000/svg" xmlns:xlink="http://www.w3.org/1999/xlink" version="1.1"><rect x="0" y="0" width="375" height="812" fill="#1f2937"></rect><defs><linearGradient id="grad1_0" x1="0%" y1="100%" x2="100%" y2="0%"><stop offset="30%" stop-color="#4ade80" stop-opacity="1"></stop><stop offset="70%" stop-color="#4ade80" stop-opacity="1"></stop></linearGradient></defs><defs><linearGradient id="grad1_1" x1="0%" y1="100%" x2="100%" y2="0%"><stop offset="30%" stop-color="#4ade80" stop-opacity="1"></stop><stop offset="70%" stop-color="#00b198" stop-opacity="1"></stop></linearGradient></defs><defs><linearGradient id="grad1_2" x1="0%" y1="100%" x2="100%" y2="0%"><stop offset="30%" stop-color="#008192" stop-opacity="1"></stop><stop offset="70%" stop-color="#00b198" stop-opacity="1"></stop></linearGradient></defs><defs><linearGradient id="grad1_3" x1="0%" y1="100%" x2="100%" y2="0%"><stop offset="30%" stop-color="#008192" stop-opacity="1"></stop><stop offset="70%" stop-color="#00526d" stop-opacity="1"></stop></linearGradient></defs><defs><linearGradient id="grad1_4" x1="0%" y1="100%" x2="100%" y2="0%"><stop offset="30%" stop-color="#1f2937" stop-opacity="1"></stop><stop offset="70%" stop-color="#00526d" stop-opacity="1"></stop></linearGradient></defs><defs><linearGradient id="grad2_0" x1="0%" y1="100%" x2="100%" y2="0%"><stop offset="30%" stop-color="#4ade80" stop-opacity="1"></stop><stop offset="70%" stop-color="#4ade80" stop-opacity="1"></stop></linearGradient></defs><defs><linearGradient id="grad2_1" x1="0%" y1="100%" x2="100%" y2="0%"><stop offset="30%" stop-color="#00b198" stop-opacity="1"></stop><stop offset="70%" stop-color="#4ade80" stop-opacity="1"></stop></linearGradient></defs><defs><linearGradient id="grad2_2" x1="0%" y1="100%" x2="100%" y2="0%"><stop offset="30%" stop-color="#00b198" stop-opacity="1"></stop><stop offset="70%" stop-color="#008192" stop-opacity="1"></stop></linearGradient></defs><defs><linearGradient id="grad2_3" x1="0%" y1="100%" x2="100%" y2="0%"><stop offset="30%" stop-color="#00526d" stop-opacity="1"></stop><stop offset="70%" stop-color="#008192" stop-opacity="1"></stop></linearGradient></defs><defs><linearGradient id="grad2_4" x1="0%" y1="100%" x2="100%" y2="0%"><stop offset="30%" stop-color="#00526d" stop-opacity="1"></stop><stop offset="70%" stop-color="#1f2937" stop-opacity="1"></stop></linearGradient></defs><g transform="translate(375, 812)"><path d="M-226 0C-233.1 -32.9 -240.1 -65.8 -234.7 -97.2C-229.2 -128.6 -211.1 -158.6 -188.8 -188.8C-166.5 -219 -139.8 -249.3 -107.6 -259.8C-75.4 -270.4 -37.7 -261.2 0 -252L0 0Z" fill="#1a3d53"></path><path d="M-180.8 0C-186.5 -26.3 -192.1 -52.6 -187.7 -77.8C-183.3 -102.9 -168.9 -126.9 -151 -151C-133.2 -175.2 -111.9 -199.4 -86.1 -207.9C-60.4 -216.3 -30.2 -209 0 -201.6L0 0Z" fill="#006a82"></path><path d="M-135.6 0C-139.8 -19.7 -144.1 -39.5 -140.8 -58.3C-137.5 -77.2 -126.7 -95.2 -113.3 -113.3C-99.9 -131.4 -83.9 -149.6 -64.6 -155.9C-45.3 -162.2 -22.6 -156.7 0 -151.2L0 0Z" fill="#009999"></path><path d="M-90.4 0C-93.2 -13.2 -96.1 -26.3 -93.9 -38.9C-91.7 -51.5 -84.5 -63.5 -75.5 -75.5C-66.6 -87.6 -55.9 -99.7 -43.1 -103.9C-30.2 -108.2 -15.1 -104.5 0 -100.8L0 0Z" fill="#00c88f"></path><path d="M-45.2 0C-46.6 -6.6 -48 -13.2 -46.9 -19.4C-45.8 -25.7 -42.2 -31.7 -37.8 -37.8C-33.3 -43.8 -28 -49.9 -21.5 -52C-15.1 -54.1 -7.5 -52.2 0 -50.4L0 0Z" fill="#4ade80"></path></g><g transform="translate(0, 0)"><path d="M229 0C251.1 41.2 273.2 82.4 259.8 107.6C246.4 132.9 197.5 142.2 168.3 168.3C139.1 194.3 129.6 237.1 104.9 253.1C80.1 269.2 40 258.6 0 248L0 0Z" fill="#1a3d53"></path><path d="M183.2 0C200.9 32.9 218.6 65.9 207.9 86.1C197.1 106.3 158 113.8 134.6 134.6C111.3 155.5 103.7 189.7 83.9 202.5C64.1 215.4 32 206.9 0 198.4L0 0Z" fill="#006a82"></path><path d="M137.4 0C150.7 24.7 163.9 49.4 155.9 64.6C147.9 79.7 118.5 85.3 101 101C83.5 116.6 77.8 142.2 62.9 151.9C48.1 161.5 24 155.2 0 148.8L0 0Z" fill="#009999"></path><path d="M91.6 0C100.4 16.5 109.3 32.9 103.9 43.1C98.6 53.2 79 56.9 67.3 67.3C55.6 77.7 51.8 94.8 41.9 101.3C32 107.7 16 103.4 0 99.2L0 0Z" fill="#00c88f"></path><path d="M45.8 0C50.2 8.2 54.6 16.5 52 21.5C49.3 26.6 39.5 28.4 33.7 33.7C27.8 38.9 25.9 47.4 21 50.6C16 53.8 8 51.7 0 49.6L0 0Z" fill="#4ade80"></path></g></svg>